<svg width="42" height="56" viewBox="0 0 42 56" fill="none" xmlns="http://www.w3.org/2000/svg">
<path d="M15.2554 20.5714L18.7022 24L25.5958 16" stroke="#0E9226" stroke-width="2" stroke-linecap="round" stroke-linejoin="round"/>
<path fill-rule="evenodd" clip-rule="evenodd" d="M25.6036 2.90379V2.90379C26.8246 4.12269 28.4805 4.80755 30.2073 4.80755C33.8031 4.80755 36.7179 7.71777 36.7179 11.3075C36.7179 13.0315 37.4039 14.6849 38.6248 15.9038C41.1675 18.4422 41.1675 22.5577 38.6248 25.0962C37.4039 26.3151 36.7179 27.9683 36.7179 29.6923C36.7179 33.2822 33.8031 36.1923 30.2073 36.1923C28.4805 36.1923 26.8246 36.8772 25.6036 38.0962C23.061 40.6346 18.9387 40.6346 16.3962 38.0962C15.1752 36.8772 13.5192 36.1923 11.7924 36.1923C8.19665 36.1923 5.28181 33.2822 5.28181 29.6923C5.28181 27.9683 4.59582 26.3151 3.37493 25.0962C0.83238 22.5577 0.83238 18.4422 3.37493 15.9038C4.59582 14.6849 5.28181 13.0315 5.28181 11.3075C5.28181 7.71777 8.19665 4.80755 11.7924 4.80755C13.5192 4.80755 15.1752 4.12269 16.3962 2.90379C18.9387 0.365402 23.061 0.365402 25.6036 2.90379Z" stroke="#0E9226" stroke-width="2" stroke-linejoin="round"/>
<path d="M29.8461 36.2651L37.0851 50.3024L30.7464 48.5822L28.6494 55L22.886 43.7937" stroke="#0E9226" stroke-width="2" stroke-linecap="round" stroke-linejoin="round"/>
<path d="M14.1161 36.6372L7.21265 50.4311L12.9178 48.7579L14.8051 55L18.6448 47.5579" stroke="#0E9226" stroke-width="2" stroke-linecap="round" stroke-linejoin="round"/>
<path fill-rule="evenodd" clip-rule="evenodd" d="M9.5105 20.5C9.5105 26.8513 14.6544 32 20.9999 32C27.3453 32 32.4892 26.8513 32.4892 20.5C32.4892 14.1487 27.3453 9 20.9999 9C14.6544 9 9.5105 14.1487 9.5105 20.5Z" stroke="#0E9226" stroke-width="2" stroke-linejoin="round"/>
</svg>
