<svg width="38" height="48" viewBox="0 0 38 48" fill="none" xmlns="http://www.w3.org/2000/svg">
<path d="M19.2434 44.3335V42.3335C19.2434 41.4785 16.4104 39.0195 15.7114 37.9255C15.2774 37.2455 12.2434 28.5645 12.2434 28.5645C12.2434 27.5985 14.6934 26.3605 16.2934 28.5645L18.9074 32.6155L20.2434 31.3335V16.3335C20.2434 15.2295 21.1394 14.3335 22.2434 14.3335C23.3474 14.3335 24.2434 15.2295 24.2434 16.3335V29.3335V28.3335V23.3335H26.2434C26.8734 23.3335 27.8604 23.7325 28.2434 24.3335H30.2434C31.1814 24.3335 32.2434 25.2085 32.2434 26.3335H34.2434C35.1814 26.3335 36.2434 27.2085 36.2434 28.3335V38.3335C36.2434 40.3565 34.2434 41.9855 34.2434 43.3335V44.3335" stroke="#0E9226" stroke-width="2"/>
<path d="M28.2434 24.3335V29.3335" stroke="#0E9226" stroke-width="2"/>
<path d="M32.2434 26.3335V30.3335" stroke="#0E9226" stroke-width="2"/>
<path d="M36.2434 47.3335V44.3335H17.2434V47.3335" stroke="#0E9226" stroke-width="2"/>
<path d="M18.2492 23.8062L15.2432 22.2973L7.74421 26.0333C7.26221 26.2733 6.71321 25.8562 6.81621 25.3272L8.36121 17.3923L2.19321 11.2703C1.80021 10.8803 2.04221 10.2102 2.59321 10.1602L10.9892 9.41125L14.6512 1.38025C14.8832 0.87325 15.6032 0.87325 15.8342 1.38025L19.4972 9.41125L27.8922 10.1602C28.4422 10.2102 28.6852 10.8803 28.2922 11.2703L26.2432 13.3013" stroke="#0E9226" stroke-width="2" stroke-linejoin="round"/>
</svg>
