<svg width="56" height="55" viewBox="0 0 56 55" fill="none" xmlns="http://www.w3.org/2000/svg">
<path fill-rule="evenodd" clip-rule="evenodd" d="M45.4375 32L37.125 40.0769L33.5625 36.6154L30 40.0769L37.125 47L49 35.4615L45.4375 32Z" stroke="#0E9226" stroke-width="2" stroke-linejoin="round"/>
<path fill-rule="evenodd" clip-rule="evenodd" d="M55 39C55 47.2843 48.2842 54 40 54C31.7158 54 25 47.2843 25 39C25 30.7157 31.7158 24 40 24C48.2842 24 55 30.7157 55 39Z" stroke="#0E9226" stroke-width="2" stroke-linejoin="round"/>
<path fill-rule="evenodd" clip-rule="evenodd" d="M17 20C21.6614 20 25 16.5413 25 11.5294V8.47059C25 3.45882 21.6614 0 17 0C12.3386 0 9 3.45882 9 8.47059V11.5294C9 16.5413 12.3386 20 17 20Z" stroke="#0E9226" stroke-width="2" stroke-linejoin="round"/>
<path d="M28 22.5498C24.5628 20.8136 20.3184 20 17.3939 20C11.699 20 1 23.0851 1 30.0588L1.00059 39" stroke="#0E9226" stroke-width="2" stroke-linecap="round" stroke-linejoin="round"/>
</svg>
