<svg width="46" height="51" viewBox="0 0 46 51" fill="none" xmlns="http://www.w3.org/2000/svg">
<path fill-rule="evenodd" clip-rule="evenodd" d="M40 4L35 15.1034V47.263C35 48.7747 36.2875 50 37.8758 50H42.1242C43.7125 50 45 48.7747 45 47.263V15.1034L40 4Z" stroke="#0E9226" stroke-width="2" stroke-linecap="round" stroke-linejoin="round"/>
<path d="M39 16.5H45" stroke="#0E9226" stroke-width="2" stroke-linecap="round" stroke-linejoin="round"/>
<path d="M40 6.5H41" stroke="#0E9226" stroke-width="2" stroke-linecap="round" stroke-linejoin="round"/>
<path d="M39 43.5H45" stroke="#0E9226" stroke-width="2" stroke-linecap="round" stroke-linejoin="round"/>
<path d="M40.5 15V43" stroke="#0E9226" stroke-width="2" stroke-linecap="round" stroke-linejoin="round"/>
<path d="M1 14.5H3" stroke="#0E9226" stroke-width="2" stroke-linecap="round" stroke-linejoin="round"/>
<path d="M1 32V1H13V22.4615" stroke="#0E9226" stroke-width="2" stroke-linecap="round" stroke-linejoin="round"/>
<path d="M1 23.5H5" stroke="#0E9226" stroke-width="2" stroke-linecap="round" stroke-linejoin="round"/>
<path d="M4.15789 50V43.7297H1V38.2432L24.6842 21L31 24.9189" stroke="#0E9226" stroke-width="2" stroke-linecap="round" stroke-linejoin="round"/>
<path d="M19 50V43H30V50" stroke="#0E9226" stroke-width="2" stroke-linecap="square" stroke-linejoin="round"/>
</svg>
