<svg width="52" height="50" viewBox="0 0 52 50" fill="none" xmlns="http://www.w3.org/2000/svg">
<path d="M39.6207 49L38.5047 48.2457L33.1174 46.6549C32.8809 46.5855 32.6493 46.4993 32.4298 46.3867C30.2726 45.282 28.4178 43.5204 27.0889 41.5513L22.2006 33.9159C21.5008 32.8774 21.0278 31.9635 22.1267 31.2483C23.2248 30.5339 26.1127 31.9898 26.8133 33.0283L29.9898 37.736L19.3688 21.5895C18.669 20.551 18.9949 19.1175 20.0938 18.4023C21.1919 17.6871 22.6639 17.9513 23.3646 18.9898L30.562 29.6575L29.4769 28.0476C28.7762 27.0099 29.1022 25.5756 30.2011 24.8612C31.3 24.146 32.7712 24.4102 33.4726 25.4487L35.0869 27.8425L34.4903 26.9581C33.7904 25.9204 34.1164 24.4861 35.2145 23.7717C36.3142 23.0565 37.7854 23.3207 38.486 24.3584L40.1417 26.812L39.5045 25.8685C38.8038 24.8301 39.1298 23.3958 40.2287 22.6814C41.3276 21.9662 42.7996 22.2304 43.4994 23.2688L47.0652 28.5528C48.8851 31.2507 49.9694 34.1944 50.5993 37.3736C50.6651 37.7088 50.6806 38.0545 50.6537 38.3945L50.4904 40.4458L51 42.6145" stroke="#0E9226" stroke-width="2" stroke-linecap="round" stroke-linejoin="round"/>
<path d="M17.1111 39H2.61111C1.72178 39 1 38.2756 1 37.383V2.61702C1 1.72443 1.72178 1 2.61111 1H28.3889C29.2782 1 30 1.72443 30 2.61702V18.7872" stroke="#0E9226" stroke-width="2" stroke-linecap="square" stroke-linejoin="round"/>
<path fill-rule="evenodd" clip-rule="evenodd" d="M6 13H24V7H6V13Z" stroke="#0E9226" stroke-width="2" stroke-linecap="square" stroke-linejoin="round"/>
<path fill-rule="evenodd" clip-rule="evenodd" d="M10 19.5C10 20.328 9.328 21 8.5 21C7.672 21 7 20.328 7 19.5C7 18.672 7.672 18 8.5 18C9.328 18 10 18.672 10 19.5" fill="#0E9226"/>
<path fill-rule="evenodd" clip-rule="evenodd" d="M16 19.5C16 20.328 15.328 21 14.5 21C13.672 21 13 20.328 13 19.5C13 18.672 13.672 18 14.5 18C15.328 18 16 18.672 16 19.5" fill="#0E9226"/>
<path fill-rule="evenodd" clip-rule="evenodd" d="M10 25.5C10 26.328 9.328 27 8.5 27C7.672 27 7 26.328 7 25.5C7 24.672 7.672 24 8.5 24C9.328 24 10 24.672 10 25.5" fill="#0E9226"/>
<path fill-rule="evenodd" clip-rule="evenodd" d="M16 25.5C16 26.328 15.328 27 14.5 27C13.672 27 13 26.328 13 25.5C13 24.672 13.672 24 14.5 24C15.328 24 16 24.672 16 25.5" fill="#0E9226"/>
<path fill-rule="evenodd" clip-rule="evenodd" d="M10 32.5C10 33.328 9.328 34 8.5 34C7.672 34 7 33.328 7 32.5C7 31.672 7.672 31 8.5 31C9.328 31 10 31.672 10 32.5" fill="#0E9226"/>
<path fill-rule="evenodd" clip-rule="evenodd" d="M16 32.5C16 33.328 15.328 34 14.5 34C13.672 34 13 33.328 13 32.5C13 31.672 13.672 31 14.5 31C15.328 31 16 31.672 16 32.5" fill="#0E9226"/>
</svg>
